<svg width="18" height="19" viewBox="0 0 18 19" fill="none" xmlns="http://www.w3.org/2000/svg">
<mask id="mask0_438_915" style="mask-type:alpha" maskUnits="userSpaceOnUse" x="0" y="0" width="18" height="19">
<rect y="0.5" width="18" height="18" fill="#D9D9D9"/>
</mask>
<g mask="url(#mask0_438_915)">
<path d="M14.7 16.25L9.975 11.525C9.6 11.825 9.16875 12.0625 8.68125 12.2375C8.19375 12.4125 7.675 12.5 7.125 12.5C5.7625 12.5 4.60938 12.0281 3.66563 11.0844C2.72188 10.1406 2.25 8.9875 2.25 7.625C2.25 6.2625 2.72188 5.10938 3.66563 4.16563C4.60938 3.22188 5.7625 2.75 7.125 2.75C8.4875 2.75 9.64063 3.22188 10.5844 4.16563C11.5281 5.10938 12 6.2625 12 7.625C12 8.175 11.9125 8.69375 11.7375 9.18125C11.5625 9.66875 11.325 10.1 11.025 10.475L15.75 15.2L14.7 16.25ZM7.125 11C8.0625 11 8.85938 10.6719 9.51562 10.0156C10.1719 9.35938 10.5 8.5625 10.5 7.625C10.5 6.6875 10.1719 5.89062 9.51562 5.23438C8.85938 4.57812 8.0625 4.25 7.125 4.25C6.1875 4.25 5.39062 4.57812 4.73438 5.23438C4.07812 5.89062 3.75 6.6875 3.75 7.625C3.75 8.5625 4.07812 9.35938 4.73438 10.0156C5.39062 10.6719 6.1875 11 7.125 11Z" fill="#1C1B1F"/>
</g>
</svg>
