<svg xmlns="http://www.w3.org/2000/svg" width="512" height="512" viewBox="0 0 512 512" version="1.1"><path d="M 279.010 16.900 L 270.639 20.500 270.569 24.973 C 270.500 29.418, 270.444 29.487, 261.529 36.136 C 256.595 39.815, 252.430 43.210, 252.273 43.680 C 252.116 44.151, 255.545 48.071, 259.891 52.392 L 267.794 60.248 274.147 55.741 C 290.002 44.492, 305.907 39.053, 325.273 38.258 C 340.646 37.626, 349.913 38.937, 362.941 43.587 C 387.677 52.415, 408.429 71.961, 418.533 95.946 C 424.500 110.113, 425.505 115.720, 425.440 134.500 C 425.386 150.031, 425.148 152.259, 422.684 160.288 C 419.447 170.836, 414.372 181.236, 408.261 189.850 L 403.756 196.200 405.850 198.295 C 407.002 199.446, 408.109 200.189, 408.310 199.944 C 413.928 193.117, 422.935 175.090, 426.769 163 C 431.226 148.946, 432.453 140.278, 432.363 123.500 C 432.275 107.282, 430.280 95.473, 425.271 81.521 C 417.431 59.686, 400.345 36.136, 387.147 28.975 C 363.211 15.987, 332.839 11.451, 306.343 16.908 C 293.329 19.588, 292.647 19.557, 289.780 16.150 L 287.382 13.301 279.010 16.900" stroke="none" fill="#82cd64" fill-rule="evenodd"/><path d="M 102 172.402 C 102 173.723, 106.044 217.081, 110.987 268.755 C 117.819 340.177, 120.453 364.257, 121.972 369.175 C 126.837 384.926, 139.692 397.796, 156 403.243 C 162.178 405.306, 164.581 405.432, 204.549 405.774 L 246.598 406.134 252.658 401.673 C 263.801 393.470, 272.026 381.127, 275.432 367.500 C 276.507 363.197, 295.036 176.935, 295.004 170.750 C 295.002 170.338, 251.575 170, 198.500 170 L 102 170 102 172.402" stroke="none" fill="#ffe046" fill-rule="evenodd"/><path d="M 295.004 170.750 C 295.036 176.935, 276.507 363.197, 275.432 367.500 C 272.037 381.086, 263.800 393.470, 252.749 401.606 C 246.169 406.450, 246.673 406.776, 257.257 404.533 C 275.496 400.668, 291.753 385.490, 296.921 367.500 C 297.553 365.300, 299.818 345.508, 301.953 323.519 C 305.824 283.661, 305.844 283.531, 308.474 281.269 C 309.925 280.021, 311.723 279, 312.470 279 C 313.444 279, 314.009 276.803, 314.465 271.250 C 314.814 266.988, 315.298 262.539, 315.540 261.364 C 315.846 259.882, 315.403 259.077, 314.092 258.734 C 313.054 258.463, 311.428 257.057, 310.481 255.611 C 308.835 253.100, 308.922 251.222, 312.418 213.741 C 314.432 192.158, 316.295 173.488, 316.558 172.250 C 317.033 170.024, 316.922 170, 306.019 170 C 299.959 170, 295.002 170.338, 295.004 170.750" stroke="none" fill="#ffd508" fill-rule="evenodd"/><path d="M 64.746 131.250 C 71.445 194.479, 72.655 207.777, 71.890 209.791 C 71.410 211.051, 69.658 212.852, 67.996 213.791 C 65.602 215.145, 65.070 216.019, 65.435 218 C 65.688 219.375, 66.189 223.762, 66.549 227.750 C 67.163 234.553, 67.351 235, 69.601 235 C 73.073 235, 75.768 238.219, 76.450 243.178 C 76.777 245.555, 82.679 301.223, 89.566 366.885 C 98.170 448.912, 102.550 487.163, 103.565 489.125 C 104.377 490.696, 106.250 492.773, 107.726 493.741 C 110.234 495.384, 116.730 495.518, 206.253 495.770 L 302.095 496.039 303.933 491.770 C 305.379 488.411, 309.744 449.642, 324.399 310 C 334.645 212.375, 343.021 131.488, 343.014 130.250 C 343.002 128.374, 342.451 128, 339.700 128 L 336.400 128 330.561 190.250 C 327.349 224.488, 324.222 253.625, 323.611 255 C 323 256.375, 321.070 258.130, 319.321 258.900 C 316.249 260.253, 316.121 260.555, 315.512 267.900 C 315.166 272.080, 314.781 276.175, 314.658 277 C 314.534 277.825, 315.674 279.274, 317.190 280.219 C 318.706 281.164, 320.237 283.097, 320.593 284.514 C 321.428 287.842, 314.405 361.508, 312.457 369.858 C 307.490 391.140, 290.631 409.629, 269.116 417.390 C 257.693 421.511, 246.433 422.239, 201.726 421.747 C 163.793 421.331, 161.073 421.179, 154.016 419.084 C 129.437 411.790, 111.152 392.916, 105.493 369 C 104.275 363.853, 82 137.127, 82 129.878 C 82 128.183, 81.142 128, 73.201 128 L 64.402 128 64.746 131.250 M 98.416 136.250 C 98.786 140.787, 99.352 146.637, 99.674 149.250 L 100.258 154 209.015 154 L 317.773 154 318.362 149.750 C 318.686 147.412, 319.249 141.563, 319.613 136.750 L 320.275 128 209.008 128 L 97.742 128 98.416 136.250" stroke="none" fill="#def4f8" fill-rule="evenodd"/><path d="M 68.250 127.735 C 70.862 127.941, 75.138 127.941, 77.750 127.735 C 80.362 127.529, 78.225 127.360, 73 127.360 C 67.775 127.360, 65.638 127.529, 68.250 127.735 M 97.654 127.750 C 97.399 128.162, 147.181 128.384, 208.281 128.241 C 296.697 128.035, 319.534 128.240, 320.170 129.241 C 320.745 130.147, 320.974 130.009, 320.985 128.750 C 320.999 127.094, 315.032 127, 209.559 127 C 148.266 127, 97.909 127.338, 97.654 127.750 M 339.250 127.728 C 342.317 128.049, 343.003 128.520, 343.014 130.310 C 343.022 131.515, 334.690 212.150, 324.500 309.500 C 309.604 451.800, 305.589 487.454, 304.022 491.368 L 302.073 496.235 305.234 495.603 C 309.177 494.815, 312.516 492.668, 314.492 489.652 C 315.624 487.924, 320.726 442.443, 334.483 311.416 C 344.642 214.662, 353.217 133.588, 353.538 131.250 L 354.123 127 344.811 127.168 C 339.690 127.261, 337.188 127.513, 339.250 127.728 M 189.250 421.749 C 200.112 421.910, 217.887 421.910, 228.750 421.749 C 239.612 421.587, 230.725 421.455, 209 421.455 C 187.275 421.455, 178.387 421.587, 189.250 421.749" stroke="none" fill="#bce8f1" fill-rule="evenodd"/><path d="M 319.128 54.017 C 307.305 55.665, 292.879 61.413, 283.208 68.329 L 278.917 71.399 299.199 91.699 L 319.482 112 342.567 112 C 373.494 112, 371.636 109.814, 368.062 142 L 366.230 158.500 379.316 171.715 L 392.401 184.929 395.817 180.215 C 412.366 157.371, 415.074 123.918, 402.415 98.694 C 393.720 81.368, 382.573 70.251, 365.109 61.486 C 352.073 54.944, 333.789 51.974, 319.128 54.017" stroke="none" fill="#ffea84" fill-rule="evenodd"/><path d="M 320.750 14.706 C 321.988 14.944, 324.012 14.944, 325.250 14.706 C 326.488 14.467, 325.475 14.272, 323 14.272 C 320.525 14.272, 319.512 14.467, 320.750 14.706 M 334.750 14.706 C 335.988 14.944, 338.012 14.944, 339.250 14.706 C 340.488 14.467, 339.475 14.272, 337 14.272 C 334.525 14.272, 333.512 14.467, 334.750 14.706 M 399.362 38.916 C 414.548 55.202, 424.752 75.030, 430.037 98.521 C 432.724 110.465, 433.256 133.925, 431.113 146 C 427.964 163.742, 417.257 189.071, 408.310 199.944 C 408.109 200.189, 406.981 199.426, 405.805 198.249 C 403.945 196.389, 403.843 195.873, 405.028 194.305 C 406.328 192.583, 406.303 192.580, 404.491 194.240 C 402.649 195.927, 402.862 196.232, 411.529 204.334 L 420.466 212.688 423.345 209.094 C 435.503 193.917, 443.420 176.960, 447.670 157 C 450.150 145.351, 450.108 121.799, 447.587 110 C 441.641 82.169, 426.333 57.317, 404.500 40.050 C 393.607 31.435, 392.070 31.096, 399.362 38.916 M 251 43.911 C 251 44.259, 254.822 48.346, 259.493 52.993 C 267.764 61.221, 268.032 61.392, 269.743 59.526 C 271.427 57.689, 271.424 57.667, 269.658 59.004 C 267.979 60.274, 267.067 59.637, 259.408 51.838 C 254.783 47.130, 251 43.563, 251 43.911 M 397.500 66 C 400.766 69.300, 403.662 72, 403.937 72 C 404.212 72, 401.766 69.300, 398.500 66 C 395.234 62.700, 392.338 60, 392.063 60 C 391.788 60, 394.234 62.700, 397.500 66 M 298.500 92 C 309.490 103, 318.706 112, 318.981 112 C 319.256 112, 310.490 103, 299.500 92 C 288.510 81, 279.294 72, 279.019 72 C 278.744 72, 287.510 81, 298.500 92 M 99.321 152.500 C 99.526 154.487, 100.263 154.500, 208.930 154.500 C 296.795 154.500, 318.384 154.249, 318.592 153.225 C 318.734 152.524, 318.621 152.411, 318.342 152.975 C 317.999 153.666, 282.325 154, 208.990 154 C 106.193 154, 100.118 153.903, 99.631 152.250 C 99.230 150.890, 99.161 150.946, 99.321 152.500 M 378.500 172 C 385.634 179.150, 391.696 185, 391.971 185 C 392.246 185, 386.634 179.150, 379.500 172 C 372.366 164.850, 366.304 159, 366.029 159 C 365.754 159, 371.366 164.850, 378.500 172 M 154.750 169.750 C 184.587 169.897, 233.412 169.897, 263.250 169.750 C 293.087 169.603, 268.675 169.482, 209 169.482 C 149.325 169.482, 124.912 169.603, 154.750 169.750 M 282.946 390.750 L 279.500 394.500 283.250 391.054 C 286.740 387.846, 287.460 387, 286.696 387 C 286.529 387, 284.842 388.688, 282.946 390.750" stroke="none" fill="#5db33a" fill-rule="evenodd"/><path d="M 301.571 1.603 C 297.761 2.445, 293.380 3.787, 291.836 4.585 C 286.751 7.214, 286.931 15.242, 292.131 17.734 C 294.288 18.768, 296.273 18.614, 304.108 16.805 C 316.745 13.888, 341.477 13.657, 353.796 16.342 C 401.609 26.763, 437.449 62.552, 447.587 110 C 450.108 121.799, 450.150 145.351, 447.670 157 C 443.420 176.960, 435.503 193.917, 423.345 209.094 L 420.466 212.688 411.638 204.435 L 402.809 196.183 406.973 190.915 C 412.822 183.515, 420.539 167.136, 423.186 156.500 C 426.038 145.040, 426.291 123.297, 423.695 112.763 C 419 93.712, 409.619 77.511, 395.681 64.382 C 371.696 41.789, 339.286 33.249, 307 41.014 C 297.122 43.390, 280.857 51.081, 273.103 57.042 L 267.706 61.192 259.132 52.618 C 249.332 42.818, 249.045 44.845, 261.500 35.901 C 271.157 28.967, 272.818 24.979, 268.227 19.750 C 264.441 15.439, 257.361 18.592, 241.970 31.441 C 234.949 37.303, 232 41.214, 232 44.665 C 232 45.648, 246.509 60.963, 264.730 79.215 L 297.459 112 174.904 112 L 52.349 112 50.174 114.314 C 48.699 115.885, 48.002 117.894, 48.006 120.564 C 48.018 128.051, 56.983 209.100, 58.013 211.024 C 59.723 214.219, 62.650 215.271, 66.394 214.035 C 72.691 211.957, 72.679 212.283, 68.105 168.836 C 65.827 147.201, 63.971 128.938, 63.981 128.250 C 63.995 127.345, 66.464 127, 72.939 127 L 81.877 127 82.464 131.250 C 82.787 133.588, 87.984 187.322, 94.013 250.660 C 103.654 351.936, 105.275 366.764, 107.462 373.660 C 114.106 394.607, 129.886 410.415, 151.500 417.776 L 159.500 420.500 209 420.500 L 258.500 420.500 266.500 417.785 C 284.975 411.517, 298.429 399.948, 307.028 382.937 C 311.654 373.786, 312.845 367.143, 316.519 330 C 320.981 284.891, 320.987 284.749, 318.595 282.106 C 315.694 278.899, 308.929 279.395, 307.025 282.954 C 306.519 283.899, 304.493 301.509, 302.524 322.086 C 300.555 342.664, 298.473 361.868, 297.898 364.763 C 294.251 383.126, 277.632 400.046, 258.907 404.460 C 249.513 406.674, 168.487 406.674, 159.093 404.460 C 140.418 400.058, 124.583 384.017, 120.487 365.351 C 119.660 361.583, 115.168 318.225, 110.504 269 C 105.839 219.775, 101.741 177.137, 101.397 174.250 L 100.770 169 208.885 169 C 268.348 169, 316.997 169.338, 316.993 169.750 C 316.988 170.162, 315.222 188.897, 313.067 211.382 C 310.453 238.665, 309.451 253.056, 310.055 254.644 C 311.929 259.574, 319.506 260.242, 322.418 255.734 C 323.439 254.155, 325.502 236.206, 329.459 194.500 C 332.537 162.050, 335.320 133.588, 335.642 131.250 L 336.227 127 345.114 127 C 353.378 127, 354 127.142, 354 129.030 C 354 135.653, 316.837 484.215, 315.784 487.467 C 314.959 490.016, 313.285 492.251, 311.102 493.717 L 307.704 496 209.302 496 C 101.966 496, 107.387 496.291, 103.469 490.312 C 101.939 487.978, 99.555 467.684, 88.863 366.011 C 81.835 299.180, 75.823 243.050, 75.503 241.279 C 74.824 237.525, 71.717 235, 67.777 235 C 63.625 235, 61 238.194, 60.998 243.250 C 60.995 252.372, 86.053 486.722, 87.582 491.868 C 89.579 498.590, 95.683 505.453, 102.500 508.642 L 107.500 510.980 209 510.980 L 310.500 510.980 315.521 508.642 C 323.874 504.752, 329.979 497.205, 331.447 488.953 C 332.123 485.158, 364 182.777, 364 180.167 C 364 179.277, 376.119 190.638, 390.932 205.413 C 423.664 238.063, 420.543 237.058, 434.679 219.500 C 454.996 194.263, 464.992 166.068, 464.992 134 C 464.992 72.567, 425.726 20.801, 365.959 3.439 C 357.001 0.837, 355.229 0.675, 332.500 0.382 C 313.737 0.141, 306.988 0.407, 301.571 1.603 M 318 53.693 C 305.772 55.748, 289.292 62.720, 281.959 68.939 L 278.500 71.873 298.491 91.936 L 318.481 112 340.676 112 C 352.882 112, 363.997 112.428, 365.374 112.952 C 370.156 114.770, 370.326 116.449, 367.977 138.720 L 365.806 159.297 378.965 172.399 L 392.123 185.500 395.059 182.041 C 396.673 180.139, 399.766 175.176, 401.932 171.014 C 414.709 146.455, 413.704 115.383, 399.370 91.786 C 394.276 83.401, 383.201 71.952, 374.744 66.330 C 366.438 60.808, 355.461 56.375, 345.265 54.424 C 338.365 53.104, 323.824 52.714, 318 53.693 M 97.075 128.750 C 97.116 129.713, 97.678 135.900, 98.325 142.500 L 99.500 154.500 209 154.500 L 318.500 154.500 319.684 143 C 320.335 136.675, 320.898 130.488, 320.934 129.250 L 321 127 209 127 C 102.972 127, 97.004 127.093, 97.075 128.750" stroke="none" fill="#090e07" fill-rule="evenodd"/></svg>